<svg width="20" height="20" viewBox="0 0 20 20" fill="none" xmlns="http://www.w3.org/2000/svg">
<path fill-rule="evenodd" clip-rule="evenodd" d="M6.71305 1.71272C7.14282 1.28295 7.72571 1.0415 8.3335 1.0415H11.6668C12.2746 1.0415 12.8575 1.28295 13.2873 1.71272C13.7171 2.14249 13.9585 2.72538 13.9585 3.33317V4.37484H15.8335C16.4413 4.37484 17.0242 4.61628 17.454 5.04605C17.8837 5.47582 18.1252 6.05872 18.1252 6.6665V11.0311C18.1254 11.0407 18.1254 11.0503 18.1252 11.0598V14.9998C18.1252 15.6076 17.8837 16.1905 17.454 16.6203C17.0242 17.0501 16.4413 17.2915 15.8335 17.2915H4.16683C3.55904 17.2915 2.97615 17.0501 2.54638 16.6203C2.11661 16.1905 1.87517 15.6076 1.87517 14.9998V11.0598C1.87495 11.0503 1.87494 11.0407 1.87517 11.0311V6.6665C1.87517 6.05872 2.11661 5.47582 2.54638 5.04605C2.97615 4.61628 3.55904 4.37484 4.16683 4.37484H6.04183V3.33317C6.04183 2.72538 6.28328 2.14249 6.71305 1.71272ZM7.29183 4.37484H12.7085V3.33317C12.7085 3.0569 12.5988 2.79195 12.4034 2.5966C12.2081 2.40125 11.9431 2.2915 11.6668 2.2915H8.3335C8.05723 2.2915 7.79228 2.40125 7.59693 2.5966C7.40158 2.79195 7.29183 3.0569 7.29183 3.33317V4.37484ZM4.16683 5.62484C3.89056 5.62484 3.62561 5.73458 3.43026 5.92993C3.23491 6.12528 3.12517 6.39024 3.12517 6.6665V10.6194C5.26155 11.4303 7.57787 11.8748 10.0002 11.8748C12.35 11.8777 14.6802 11.4518 16.8752 10.6193V6.6665C16.8752 6.39024 16.7654 6.12528 16.5701 5.92993C16.3747 5.73458 16.1098 5.62484 15.8335 5.62484H4.16683ZM10.0002 13.1248C12.3442 13.1276 14.6692 12.7297 16.8752 11.9504ZM16.8752 11.9504V14.9998C16.8752 15.2761 16.7654 15.5411 16.5701 15.7364C16.3747 15.9318 16.1098 16.0415 15.8335 16.0415H4.16683C3.89057 16.0415 3.62561 15.9318 3.43026 15.7364C3.23491 15.5411 3.12517 15.2761 3.12517 14.9998V11.9506C5.27631 12.7109 7.59027 13.1248 10.0002 13.1248M9.37517 9.99984C9.37517 9.65466 9.65499 9.37484 10.0002 9.37484H10.0085C10.3537 9.37484 10.6335 9.65466 10.6335 9.99984C10.6335 10.345 10.3537 10.6248 10.0085 10.6248H10.0002C9.65499 10.6248 9.37517 10.345 9.37517 9.99984Z" fill="#A0AEC0"/>
</svg>
