<svg width="16" height="17" viewBox="0 0 16 17" fill="none" xmlns="http://www.w3.org/2000/svg">
<path fill-rule="evenodd" clip-rule="evenodd" d="M7.9999 6.61331C6.95604 6.61331 6.11323 7.45612 6.11323 8.49998C6.11323 9.54384 6.95604 10.3866 7.9999 10.3866C9.04375 10.3866 9.88656 9.54384 9.88656 8.49998C9.88656 7.45612 9.04375 6.61331 7.9999 6.61331ZM5.11323 8.49998C5.11323 6.90384 6.40375 5.61331 7.9999 5.61331C9.59604 5.61331 10.8866 6.90384 10.8866 8.49998C10.8866 10.0961 9.59604 11.3866 7.9999 11.3866C6.40375 11.3866 5.11323 10.0961 5.11323 8.49998Z" fill="white"/>
<path fill-rule="evenodd" clip-rule="evenodd" d="M1.50489 6.49796C3.09884 3.99238 5.43458 2.47998 7.9999 2.47998C10.5653 2.47998 12.9012 3.99251 14.4951 6.49828C14.8584 7.06784 15.0232 7.79742 15.0232 8.49665C15.0232 9.19588 14.8584 9.92545 14.4951 10.495C12.9012 13.0008 10.5653 14.5133 7.9999 14.5133C5.43446 14.5133 3.09863 13.0008 1.50468 10.495C1.14137 9.92545 0.976562 9.19588 0.976562 8.49665C0.976562 7.79728 1.14143 7.06756 1.50489 6.49796ZM7.9999 3.47998C5.85866 3.47998 3.80783 4.74078 2.34844 7.03501L2.34802 7.03566C2.11163 7.40601 1.97656 7.93614 1.97656 8.49665C1.97656 9.05715 2.11163 9.58729 2.34802 9.95763L2.34844 9.95829C3.80783 12.2525 5.85866 13.5133 7.9999 13.5133C10.1411 13.5133 12.192 12.2525 13.6514 9.95829L13.6518 9.95763C13.8882 9.58729 14.0232 9.05715 14.0232 8.49665C14.0232 7.93614 13.8882 7.40601 13.6518 7.03566L13.6514 7.03501C12.192 4.74078 10.1411 3.47998 7.9999 3.47998Z" fill="white"/>
</svg>
