<svg width="20" height="20" viewBox="0 0 20 20" fill="none" xmlns="http://www.w3.org/2000/svg">
<path fill-rule="evenodd" clip-rule="evenodd" d="M11.667 1.875C12.0122 1.875 12.292 2.15482 12.292 2.5V5.83333C12.292 5.88859 12.3139 5.94158 12.353 5.98065C12.3921 6.01972 12.4451 6.04167 12.5003 6.04167H15.8337C16.1788 6.04167 16.4587 6.32149 16.4587 6.66667C16.4587 7.01184 16.1788 7.29167 15.8337 7.29167H12.5003C12.1136 7.29167 11.7426 7.13802 11.4691 6.86453C11.1956 6.59104 11.042 6.22011 11.042 5.83333V2.5C11.042 2.15482 11.3218 1.875 11.667 1.875Z" fill="#A0AEC0"/>
<path fill-rule="evenodd" clip-rule="evenodd" d="M5.83366 3.125C5.55739 3.125 5.29244 3.23475 5.09709 3.4301C4.90174 3.62545 4.79199 3.8904 4.79199 4.16667V15.8333C4.79199 16.1096 4.90174 16.3746 5.09709 16.5699C5.29244 16.7653 5.55739 16.875 5.83366 16.875H14.167C14.4433 16.875 14.7082 16.7653 14.9036 16.5699C15.0989 16.3746 15.2087 16.1096 15.2087 15.8333V6.92555L11.4081 3.125H5.83366ZM4.21321 2.54621C4.64298 2.11644 5.22587 1.875 5.83366 1.875H11.667C11.8328 1.875 11.9917 1.94085 12.1089 2.05806L16.2756 6.22472C16.3928 6.34193 16.4587 6.50091 16.4587 6.66667V15.8333C16.4587 16.4411 16.2172 17.024 15.7874 17.4538C15.3577 17.8836 14.7748 18.125 14.167 18.125H5.83366C5.22587 18.125 4.64298 17.8836 4.21321 17.4538C3.78343 17.024 3.54199 16.4411 3.54199 15.8333V4.16667C3.54199 3.55888 3.78343 2.97598 4.21321 2.54621Z" fill="#A0AEC0"/>
<path fill-rule="evenodd" clip-rule="evenodd" d="M10.0003 8.54167C10.3455 8.54167 10.6253 8.82149 10.6253 9.16667V14.1667C10.6253 14.5118 10.3455 14.7917 10.0003 14.7917C9.65515 14.7917 9.37533 14.5118 9.37533 14.1667V9.16667C9.37533 8.82149 9.65515 8.54167 10.0003 8.54167Z" fill="#A0AEC0"/>
<path fill-rule="evenodd" clip-rule="evenodd" d="M7.05838 11.2247C7.30246 10.9806 7.69819 10.9806 7.94227 11.2247L10.0003 13.2828L12.0584 11.2247C12.3025 10.9806 12.6982 10.9806 12.9423 11.2247C13.1863 11.4688 13.1863 11.8645 12.9423 12.1086L10.4423 14.6086C10.1982 14.8527 9.80246 14.8527 9.55838 14.6086L7.05838 12.1086C6.81431 11.8645 6.81431 11.4688 7.05838 11.2247Z" fill="#A0AEC0"/>
</svg>
