<svg width="20" height="21" viewBox="0 0 20 21" fill="none" xmlns="http://www.w3.org/2000/svg">
<path fill-rule="evenodd" clip-rule="evenodd" d="M4.99967 4.45825C4.42438 4.45825 3.95801 4.92462 3.95801 5.49992V7.16659C3.95801 7.74188 4.42438 8.20825 4.99967 8.20825H14.9997C15.575 8.20825 16.0413 7.74188 16.0413 7.16659V5.49992C16.0413 4.92462 15.575 4.45825 14.9997 4.45825H4.99967ZM2.70801 5.49992C2.70801 4.23427 3.73402 3.20825 4.99967 3.20825H14.9997C16.2653 3.20825 17.2913 4.23427 17.2913 5.49992V7.16659C17.2913 8.43224 16.2653 9.45825 14.9997 9.45825H4.99967C3.73402 9.45825 2.70801 8.43224 2.70801 7.16659V5.49992Z" fill="#111827"/>
<path fill-rule="evenodd" clip-rule="evenodd" d="M4.99967 12.7916C4.42438 12.7916 3.95801 13.258 3.95801 13.8333V15.4999C3.95801 16.0752 4.42438 16.5416 4.99967 16.5416H14.9997C15.575 16.5416 16.0413 16.0752 16.0413 15.4999V13.8333C16.0413 13.258 15.575 12.7916 14.9997 12.7916H4.99967ZM2.70801 13.8333C2.70801 12.5676 3.73402 11.5416 4.99967 11.5416H14.9997C16.2653 11.5416 17.2913 12.5676 17.2913 13.8333V15.4999C17.2913 16.7656 16.2653 17.7916 14.9997 17.7916H4.99967C3.73402 17.7916 2.70801 16.7656 2.70801 15.4999V13.8333Z" fill="#111827"/>
</svg>
