<svg width="20" height="21" viewBox="0 0 20 21" fill="none" xmlns="http://www.w3.org/2000/svg">
<path fill-rule="evenodd" clip-rule="evenodd" d="M4.99967 4.4585C4.42438 4.4585 3.95801 4.92487 3.95801 5.50016V7.16683C3.95801 7.74213 4.42438 8.2085 4.99967 8.2085H14.9997C15.575 8.2085 16.0413 7.74213 16.0413 7.16683V5.50016C16.0413 4.92487 15.575 4.4585 14.9997 4.4585H4.99967ZM2.70801 5.50016C2.70801 4.23451 3.73402 3.2085 4.99967 3.2085H14.9997C16.2653 3.2085 17.2913 4.23451 17.2913 5.50016V7.16683C17.2913 8.43248 16.2653 9.4585 14.9997 9.4585H4.99967C3.73402 9.4585 2.70801 8.43248 2.70801 7.16683V5.50016Z" fill="#111827"/>
<path fill-rule="evenodd" clip-rule="evenodd" d="M4.99967 12.7918C4.42438 12.7918 3.95801 13.2582 3.95801 13.8335V15.5002C3.95801 16.0755 4.42438 16.5418 4.99967 16.5418H14.9997C15.575 16.5418 16.0413 16.0755 16.0413 15.5002V13.8335C16.0413 13.2582 15.575 12.7918 14.9997 12.7918H4.99967ZM2.70801 13.8335C2.70801 12.5678 3.73402 11.5418 4.99967 11.5418H14.9997C16.2653 11.5418 17.2913 12.5678 17.2913 13.8335V15.5002C17.2913 16.7658 16.2653 17.7918 14.9997 17.7918H4.99967C3.73402 17.7918 2.70801 16.7658 2.70801 15.5002V13.8335Z" fill="#111827"/>
</svg>
