<svg width="100" height="61" viewBox="0 0 100 61" fill="none" xmlns="http://www.w3.org/2000/svg">
<path fill-rule="evenodd" clip-rule="evenodd" d="M17.1769 0.985159C10.3047 2.52166 2.82637 6.42985 0.16555 13.3242C-0.193933 14.1705 0.00974986 15.1868 1.00743 15.6721C1.79006 16.0338 2.94543 15.7542 3.30491 14.9079C6.02123 7.80413 14.4417 4.59061 21.4268 3.73308C36.2861 1.89264 50.1427 9.10509 60.6523 19.0014C66.0234 24.148 70.6781 29.9578 75.0024 35.9946C79.7072 42.6205 83.8804 49.5544 87.5219 56.7964C87.49 56.8823 87.4494 56.9869 87.4088 57.0915C87.38 57.1657 87.3512 57.24 87.3255 57.3075C87.1576 57.1751 86.9249 57.0565 86.7465 56.9657C86.6752 56.9293 86.6126 56.8974 86.5663 56.8708C85.6995 56.2743 84.8488 55.6596 83.9981 55.0449C83.1473 54.4302 82.2966 53.8154 81.4297 53.2189C74.7746 48.4973 68.0462 43.7118 61.3179 38.9264C60.5908 38.3552 59.5553 38.3527 58.912 39.0799C58.3331 39.7344 58.3393 40.9005 59.0665 41.4717C61.1293 42.9525 63.1911 44.4163 65.2529 45.8801C67.3146 47.3439 69.3763 48.8076 71.439 50.2884C73.2824 51.5774 75.1097 52.8846 76.937 54.1918C78.7643 55.499 80.5915 56.8062 82.4349 58.0952C83.3771 58.7898 84.2461 59.4205 85.1839 60.0469C86.1216 60.6732 87.1193 61.1584 88.2103 60.9516C90.1349 60.6475 90.7251 58.7274 91.2324 57.0767C91.3014 56.8521 91.3689 56.6325 91.4381 56.4227L99.9409 30.9718C100.232 30.1299 99.4093 29.1531 98.4204 28.8045C97.4404 28.5926 96.6508 29.1919 96.3645 30.1022C95.6442 32.3096 94.9068 34.5181 94.1694 36.7267C93.432 38.9352 92.6945 41.1437 91.9743 43.3511C91.2346 45.645 90.4699 47.917 89.7086 50.1791C89.4779 50.8643 89.2476 51.5487 89.0183 52.2324C85.152 44.889 80.7731 37.8497 75.7977 31.2093C66.5816 18.8974 55.2011 7.27265 40.1798 2.3303C32.7722 -0.147461 24.7964 -0.736278 17.1769 0.985159ZM87.5263 57.5248C87.57 57.5765 87.5863 57.5778 87.5836 57.5656C87.5808 57.5533 87.559 57.5277 87.5263 57.5248Z" fill="#E9EAEC"/>
</svg>
