<svg width="16" height="17" viewBox="0 0 16 17" fill="none" xmlns="http://www.w3.org/2000/svg">
<path fill-rule="evenodd" clip-rule="evenodd" d="M6.66699 3C6.62279 3 6.5804 3.01756 6.54914 3.04882C6.51788 3.08007 6.50033 3.12246 6.50033 3.16667V4.66667H9.50033V3.16667C9.50033 3.12246 9.48277 3.08007 9.45151 3.04882C9.42025 3.01756 9.37786 3 9.33366 3H6.66699ZM3.87706 5.66667L4.4986 13.1251C4.49975 13.139 4.50033 13.1528 4.50033 13.1667C4.50033 13.3877 4.58812 13.5996 4.7444 13.7559C4.90068 13.9122 5.11265 14 5.33366 14H10.667C10.888 14 11.1 13.9122 11.2562 13.7559C11.4125 13.5996 11.5003 13.3877 11.5003 13.1667C11.5003 13.1528 11.5009 13.139 11.5021 13.1251L12.1236 5.66667H3.87706ZM13.1271 5.66667L12.5002 13.1891C12.4943 13.6672 12.3019 14.1245 11.9634 14.463C11.6195 14.8068 11.1532 15 10.667 15H5.33366C4.84743 15 4.38111 14.8068 4.0373 14.463C3.69877 14.1245 3.50631 13.6672 3.50046 13.1891L2.87359 5.66667H2.66699C2.39085 5.66667 2.16699 5.44281 2.16699 5.16667C2.16699 4.89052 2.39085 4.66667 2.66699 4.66667H5.50033V3.16667C5.50033 2.85725 5.62324 2.5605 5.84203 2.34171C6.06083 2.12292 6.35757 2 6.66699 2H9.33366C9.64308 2 9.93982 2.12292 10.1586 2.34171C10.3774 2.5605 10.5003 2.85725 10.5003 3.16667V4.66667H13.3337C13.6098 4.66667 13.8337 4.89052 13.8337 5.16667C13.8337 5.44281 13.6098 5.66667 13.3337 5.66667H13.1271ZM6.66699 7.33333C6.94313 7.33333 7.16699 7.55719 7.16699 7.83333V11.8333C7.16699 12.1095 6.94313 12.3333 6.66699 12.3333C6.39085 12.3333 6.16699 12.1095 6.16699 11.8333V7.83333C6.16699 7.55719 6.39085 7.33333 6.66699 7.33333ZM9.33366 7.33333C9.6098 7.33333 9.83366 7.55719 9.83366 7.83333V11.8333C9.83366 12.1095 9.6098 12.3333 9.33366 12.3333C9.05752 12.3333 8.83366 12.1095 8.83366 11.8333V7.83333C8.83366 7.55719 9.05752 7.33333 9.33366 7.33333Z" fill="white"/>
</svg>
